<svg width="24" height="24" viewBox="0 0 24 24" fill="none" xmlns="http://www.w3.org/2000/svg">
<g clip-path="url(#clip0_240_1602)" filter="url(#filter0_di_240_1602)">
<path d="M11.3339 15.8344H4.83323V13.8342H11.3339C11.9727 13.8344 12.5993 14.0095 13.1458 14.3404C13.6922 14.6712 14.1377 15.1454 14.4339 15.7113C14.7302 16.2773 14.8659 16.9136 14.8264 17.5512C14.7868 18.1887 14.5736 18.8034 14.2097 19.3284C13.8458 19.8535 13.3452 20.2689 12.7621 20.5298C12.179 20.7907 11.5356 20.887 10.9016 20.8083C10.2676 20.7296 9.66731 20.479 9.16563 20.0835C8.66396 19.688 8.28007 19.1628 8.05558 18.5647L9.92878 17.8616C10.025 18.118 10.1895 18.3431 10.4045 18.5126C10.6194 18.6821 10.8767 18.7896 11.1484 18.8233C11.4201 18.857 11.6959 18.8158 11.9458 18.704C12.1957 18.5922 12.4103 18.4142 12.5662 18.1892C12.7222 17.9642 12.8136 17.7008 12.8306 17.4275C12.8475 17.1543 12.7894 16.8816 12.6625 16.639C12.5355 16.3964 12.3446 16.1932 12.1104 16.0514C11.8762 15.9096 11.6077 15.8345 11.3339 15.8344ZM5.83333 9.83377H19.3348C19.9736 9.83399 20.6002 10.009 21.1466 10.3399C21.6931 10.6708 22.1386 11.1449 22.4348 11.7109C22.731 12.2769 22.8668 12.9131 22.8272 13.5507C22.7877 14.1883 22.5744 14.8029 22.2106 15.328C21.8467 15.853 21.3461 16.2685 20.763 16.5294C20.1798 16.7902 19.5364 16.8866 18.9025 16.8079C18.2685 16.7292 17.6682 16.4785 17.1665 16.0831C16.6648 15.6876 16.2809 15.1623 16.0564 14.5643L17.9296 13.8612C18.0258 14.1175 18.1903 14.3426 18.4053 14.5122C18.6203 14.6817 18.8776 14.7891 19.1493 14.8229C19.421 14.8566 19.6967 14.8154 19.9467 14.7036C20.1966 14.5918 20.4112 14.4138 20.5671 14.1887C20.7231 13.9637 20.8145 13.7003 20.8315 13.4271C20.8484 13.1538 20.7903 12.8811 20.6633 12.6386C20.5364 12.396 20.3455 12.1928 20.1113 12.051C19.8771 11.9091 19.6086 11.8341 19.3348 11.834H5.83333C5.0376 11.834 4.27445 11.5179 3.71178 10.9552C3.14911 10.3925 2.83301 9.62939 2.83301 8.83366C2.83301 8.03792 3.14911 7.27478 3.71178 6.71211C4.27445 6.14944 5.0376 5.83333 5.83333 5.83333H14.3343C14.608 5.83322 14.8766 5.75818 15.1108 5.61636C15.3449 5.47453 15.5358 5.27133 15.6628 5.02875C15.7897 4.78618 15.8479 4.51349 15.8309 4.24024C15.814 3.96698 15.7225 3.70358 15.5666 3.47857C15.4106 3.25355 15.196 3.07551 14.9461 2.96373C14.6962 2.85195 14.4204 2.8107 14.1487 2.84444C13.8771 2.87818 13.6198 2.98563 13.4048 3.15515C13.1898 3.32467 13.0253 3.54978 12.9291 3.80611L11.0559 3.10404C11.3444 2.33676 11.893 1.69502 12.606 1.29065C13.3191 0.886275 14.1514 0.744895 14.958 0.891145C15.7645 1.03739 16.4942 1.462 17.0199 2.09098C17.5456 2.71996 17.8339 3.51344 17.8346 4.33317C17.8346 5.26153 17.4658 6.15186 16.8094 6.80831C16.153 7.46476 15.2626 7.83355 14.3343 7.83355H5.83333C5.56809 7.83355 5.31371 7.93892 5.12615 8.12647C4.93859 8.31403 4.83323 8.56841 4.83323 8.83366C4.83323 9.0989 4.93859 9.35328 5.12615 9.54084C5.31371 9.7284 5.56809 9.83377 5.83333 9.83377Z" fill="white"/>
</g>
<defs>
<filter id="filter0_di_240_1602" x="-0.262412" y="0" width="24.2624" height="25.0165" filterUnits="userSpaceOnUse" color-interpolation-filters="sRGB">
<feFlood flood-opacity="0" result="BackgroundImageFix"/>
<feColorMatrix in="SourceAlpha" type="matrix" values="0 0 0 0 0 0 0 0 0 0 0 0 0 0 0 0 0 0 127 0" result="hardAlpha"/>
<feOffset dx="-1.50827" dy="2.26241"/>
<feGaussianBlur stdDeviation="0.377069"/>
<feColorMatrix type="matrix" values="0 0 0 0 0 0 0 0 0 0 0 0 0 0 0 0 0 0 0.1 0"/>
<feBlend mode="normal" in2="BackgroundImageFix" result="effect1_dropShadow_240_1602"/>
<feBlend mode="normal" in="SourceGraphic" in2="effect1_dropShadow_240_1602" result="shape"/>
<feColorMatrix in="SourceAlpha" type="matrix" values="0 0 0 0 0 0 0 0 0 0 0 0 0 0 0 0 0 0 127 0" result="hardAlpha"/>
<feOffset dx="-0.754137" dy="0.754137"/>
<feGaussianBlur stdDeviation="0.754137"/>
<feComposite in2="hardAlpha" operator="arithmetic" k2="-1" k3="1"/>
<feColorMatrix type="matrix" values="0 0 0 0 1 0 0 0 0 1 0 0 0 0 1 0 0 0 0.25 0"/>
<feBlend mode="normal" in2="shape" result="effect2_innerShadow_240_1602"/>
</filter>
<clipPath id="clip0_240_1602">
<rect width="22" height="22" fill="white" transform="translate(2)"/>
</clipPath>
</defs>
</svg>
